# xmcd
#
# Track frame offsets:
#	150
#	10159
#	23537
#	40095
#
# Disc length: 752 seconds
#
# Revision: 0
# Processed by: cddbd v1.4PL0 Copyright (c) Steve Scherf et al.
# Submitted via: EasyCDDAExtractor 4.6.9.1
#
DISCID=1e02ee04
DTITLE=Les Cowboys Fringants - Heures Supplémentaires
DYEAR=2002
DGENRE=Country
TTITLE0=La sainte paix
TTITLE1=Le gourmand
TTITLE2=Karaoké
TTITLE3=Karaoké (Version karaoké)
EXTD=
EXTT0=
EXTT1=
EXTT2=
EXTT3=
PLAYORDER=
